<?xml version="1.0" encoding="utf-8"?>
<!-- Generator: Adobe Illustrator 27.6.1, SVG Export Plug-In . SVG Version: 6.00 Build 0)  -->
<svg version="1.1" id="Layer_1" xmlns="http://www.w3.org/2000/svg" xmlns:xlink="http://www.w3.org/1999/xlink" x="0px" y="0px"
	 viewBox="0 0 300 134" style="enable-background:new 0 0 300 134;" xml:space="preserve">
<style type="text/css">
	.st0{fill:#BF3232;}
	.st1{fill:#CE0606;}
	.st2{fill:#F15925;}
	.st3{fill:#0072BD;}
</style>
<path class="st0" d="M99.2,34.7c0.4,0,0.6-0.2,0.4-0.4c-0.1-0.3-0.3-0.4-0.4-0.4c-0.1,0-0.3,0.2-0.4,0.4
	C98.6,34.5,98.8,34.7,99.2,34.7z"/>
<path class="st0" d="M100.3,32.5c0.5,0,0.9-0.3,0.9-0.6c0-0.3,0.4-0.7,1-0.9c0.8-0.2,0.9-0.2,0.1-0.2c-1.1,0-2.9,0.8-2.9,1.3
	C99.4,32.4,99.8,32.5,100.3,32.5z"/>
<path class="st0" d="M101.9,33.5c0.4,0.4,1.9-0.7,1.9-1.3c0-0.3-0.2-0.6-0.3-0.6C102.9,31.7,101.6,33.3,101.9,33.5z"/>
<path class="st0" d="M107,29.4c0.8,0.6,1.2,0.8,0.9,0.4c-0.3-0.3-0.6-1.1-0.6-1.5c-0.1-0.6-0.4-0.9-0.9-0.7
	C105.2,27.8,105.4,28.2,107,29.4z"/>
<path class="st0" d="M104.6,33.9c0.1-0.3,0.1-0.7,0-0.9c-0.1-0.2-0.3,0.1-0.2,0.6C104.3,34.1,104.4,34.3,104.6,33.9z"/>
<path class="st0" d="M63.2,72.3c-0.3-0.1-0.6-0.2-0.6-0.1c0,0.1,0.3,0.4,0.6,0.7c0.4,0.3,0.6,0.3,0.6,0.1
	C63.8,72.9,63.5,72.6,63.2,72.3z"/>
<path class="st0" d="M66.1,69.8c-0.4,0.1-1.1-0.1-1.5-0.5c-0.3-0.4-0.9-0.7-1.1-0.7c-0.2,0,0.3,0.6,1.2,1.3c1.1,0.9,1.6,1.2,1.8,0.8
	C67,69.8,66.9,69.6,66.1,69.8z"/>
<path class="st0" d="M64,70.8c-0.3-0.3-0.6-0.3-0.6-0.1c0,0.2,0.3,0.6,0.6,1c0.3,0.3,0.6,0.3,0.6,0.1C64.7,71.5,64.4,71.1,64,70.8z"
	/>
<path class="st0" d="M118.3,18.5c0.2,0,0.3-0.2,0.2-0.4c-0.1-0.3-0.3-0.4-0.5-0.4c-0.1,0-0.2,0.2-0.2,0.4
	C117.9,18.2,118.1,18.5,118.3,18.5z"/>
<path class="st0" d="M121.4,15.7c0-0.3-0.2-0.7-0.4-0.9c-0.4-0.3-1,0.9-0.6,1.2C120.9,16.5,121.4,16.3,121.4,15.7z"/>
<path class="st0" d="M150.6,65.5c0.3,0,0.7,0.3,0.9,0.7c0.1,0.4,0.2-0.6,0.3-2.4c0-1.7,0-3.2-0.2-3.2s-0.2,0.9-0.2,2
	c0,1.6-0.1,2-0.6,1.8c-0.4-0.1-0.6,0-0.6,0.4C150,65.2,150.2,65.5,150.6,65.5z"/>
<path class="st0" d="M118.9,16.1c0.2-0.4,0.3-1,0.2-1.3c-0.1-0.3-0.2-0.2-0.2,0.2c0,0.4-0.3,0.8-0.5,0.8c-0.2,0-0.3,0.2-0.1,0.5
	C118.3,16.7,118.6,16.6,118.9,16.1z"/>
<path class="st0" d="M102.1,34.9c-2,0-2.3,0.6-0.6,1c1.2,0.3,2.4,0,2.4-0.6C103.8,35,103,34.9,102.1,34.9z"/>
<path class="st0" d="M109.3,27.3c-0.4-0.5-1-0.9-1.2-0.9c-0.2,0,0,0.5,0.6,1.1C109.9,28.7,110.5,28.5,109.3,27.3z"/>
<path class="st0" d="M118.6,22.2c0.2-0.2,0-0.5-0.3-0.7c-0.5-0.3-0.5-0.5-0.1-0.7c0.3-0.1,0.5-0.6,0.5-1.2c0-0.9,0-0.9-0.6-0.1
	c-0.8,1.1-2.7,0.6-2.4-0.6c0.3-1,0.1-1.1-0.5-0.3c-0.3,0.4,0,1,1.3,2.3C117.5,21.8,118.5,22.4,118.6,22.2z"/>
<path class="st0" d="M110.5,25.9c0.2,0,0.3-0.2,0.2-0.4c-0.1-0.3-0.3-0.4-0.5-0.4c-0.1,0-0.2,0.2-0.2,0.4
	C110,25.7,110.2,25.9,110.5,25.9z"/>
<path class="st0" d="M115.2,23.3c0.6-0.4,0.6-0.4-0.1-0.2c-0.9,0.3-2.1-0.6-2.1-1.5c0-0.3,0.3-0.5,0.6-0.5c0.3,0,0.6,0.2,0.6,0.5
	c0,0.4,0.1,0.4,0.5,0c0.4-0.4,0.4-0.6-0.1-1.2c-0.6-0.6-0.7-0.6-1.5,0.3c-0.5,0.6-0.9,1.3-0.7,1.7C112.7,23.4,114.3,23.8,115.2,23.3
	z"/>
<path class="st1" d="M189,103.4c0.4-0.6,0.6-1.1,0.5-1.2c-0.2-0.2-1.2,1.4-1.2,1.8C188.2,104.2,188.5,103.9,189,103.4z"/>
<path class="st1" d="M180.3,112.1c0,0.2,0.3,0.4,0.7,0.4c1,0,0.3,0.6-0.9,0.7c-1.2,0.2-1.6,0.6-0.9,0.9c0.3,0.1,0.4,0.4,0.2,0.7
	c-0.3,0.6,1.6-1,2.1-1.6c0.1-0.2,0.2-0.6,0-1C181.5,111.6,180.3,111.4,180.3,112.1z"/>
<path class="st1" d="M156.5,59.7c-0.4-0.3-0.8-0.9-0.9-1.4c-0.2-0.8-0.2-0.7-0.3,0.1c0,1.1,1.1,2.6,1.6,2.1
	C157.1,60.4,156.8,60,156.5,59.7z"/>
<path class="st1" d="M160.6,53.6c-0.6-0.6-0.6-0.5-0.4,0.1c0.4,1-0.1,1.3-0.9,0.6c-0.5-0.4-0.5-0.2,0.1,0.6c0.7,1.2,2,1.8,1.4,0.8
	c-0.2-0.3-0.1-0.7,0.1-1C161.2,54.5,161.1,54.1,160.6,53.6z"/>
<path class="st1" d="M180.3,110.6c0-0.4-0.4-0.7-0.9-0.7c-1.1,0-0.9,1,0.2,1.2C180,111.2,180.3,111,180.3,110.6z"/>
<path class="st1" d="M185.9,105.5c0,0-0.4,0.3-0.9,0.6c-0.9,0.6-0.9,0.6,0,1.5l0.9,0.9l0-1.5C185.9,106.2,185.9,105.5,185.9,105.5z"
	/>
<circle class="st1" cx="187.4" cy="106" r="0.4"/>
<path class="st0" d="M145.8,68.6c0.6,0.6,1.1,0.9,1.1,0.6c0-0.7-1.6-2.5-1.9-2.1C144.8,67.4,145.2,68.1,145.8,68.6z"/>
<path class="st0" d="M141.9,70.3c0.3,0,0.5-0.2,0.4-0.4c-0.1-0.3-0.4-0.4-0.7-0.4c-0.2,0-0.4,0.2-0.4,0.4
	C141.2,70.1,141.5,70.3,141.9,70.3z"/>
<path class="st0" d="M142.9,71.9c0.3-0.1,0.4-0.4,0.4-0.7c0-0.2-0.2-0.4-0.4-0.4c-0.2,0-0.4,0.3-0.4,0.7
	C142.5,71.8,142.7,72,142.9,71.9z"/>
<path class="st0" d="M142.8,73.7c-0.4,1.1-0.3,1.2,0.4,0.6c0.3-0.3,0.6-0.7,0.6-0.9C143.8,72.7,143.1,72.9,142.8,73.7z"/>
<path class="st0" d="M139.9,72.1c0.6,0,0.9-0.2,0.7-0.7c-0.2-1.2-1.7-1.3-1.7-0.2C139,71.8,139.2,72.1,139.9,72.1z"/>
<path class="st0" d="M141.3,74.7c0.2,0,0.3-0.3,0.3-0.6c0-0.3,0.1-0.9,0.3-1.3c0.1-0.4,0.1-0.7-0.2-0.7c-0.2,0-0.5,0.6-0.6,1.3
	C141,74.1,141,74.7,141.3,74.7z"/>
<path class="st2" d="M118.9,49c-17.8,0-33-0.2-33.8-0.3c-1.1-0.2-1.6-0.7-2.1-2c-1.1-2.3-0.5-4.2,1.5-5.6l1.5-1h32.5
	c21.6,0,32.8-0.1,33.4-0.4c0.8-0.4,0.9-1.1,0.9-14.9c0-13.4,0-14.5-0.8-15.1c-0.7-0.7-3.7-0.7-34.4-0.7c-25,0-34.6,0.2-37.8,0.6
	c-5.8,0.8-9.6,1.8-14.1,3.7S54,19.7,54.4,20.3c0.2,0.3,0.1,0.3-0.2,0.2c-0.7-0.4-5.6,5.3-7.3,8.5c-4.2,8.1-4.8,17-1.8,26.2
	c0.9,2.8,2.5,5.4,5,8.7c3.2,4,9.9,9.3,11.3,8.8c0.3-0.1,0.5-0.1,0.4,0.2c-0.3,0.5,1.4,1.5,2.1,1.1c0.3-0.2,0.3-0.1,0.2,0.1
	c-0.3,0.6,0.9,1.2,1.5,0.7c0.3-0.1,0.3,0,0.2,0.2c-0.4,0.6,4.9,2.6,10.5,3.7c4.6,1,5.6,1,39.9,1.3c19.7,0.1,35.4,0,35.8-0.2
	c0.4-0.3,0.5-3.7,0.5-14.7c0-12.1-0.1-14.5-0.7-15.2C151.3,49,150.7,49,118.9,49z"/>
<path class="st3" d="M277,113.9c-5.4-3.9-10.9-7.9-12.1-8.8c-7.8-5.7-11-8.1-14.9-10.9c-5-3.6-14-10.1-18.5-13.4
	c-7-5.2-8.1-6-11.3-8.3c-3.4-2.5-3.9-3.1-3.6-4.1c0.1-0.3,2.1-1.9,4.5-3.6c2.3-1.8,6.2-4.6,8.4-6.4c4.5-3.4,18.4-14,23.5-17.8
	c1.7-1.3,3.6-2.7,4.2-3.2c3.5-2.7,22.3-16.8,27.4-20.7c7.1-5.3,8.6-6.6,8.6-7.5c0-0.5-4.7-0.6-25.3-0.6h-25.3l-25,19
	c-26.7,20.3-27.2,20.7-27.7,20.3c-0.2-0.1-0.3-8.6-0.3-18.9c0-12-0.2-19-0.4-19.6c-0.4-0.8-1.1-0.9-17.1-0.9
	c-9.2,0-16.7,0.1-16.9,0.3c-0.2,0.1-0.3,8.6-0.3,18.8c0,14.6,0.1,18.7,0.6,19.1c0.3,0.3,2.1,0.8,3.9,1.2c14.9,3,27,11.9,32.5,23.6
	c1.9,4.2,3.1,9.2,3.3,14.9l0.3,5.1l8.2,6.1c4.5,3.4,10.9,8.1,14.1,10.5c3.3,2.4,10.2,7.6,15.5,11.5l9.6,7.1h25.5
	c14,0,25.5-0.2,25.6-0.3C294.2,126.3,292.6,125.1,277,113.9z"/>
<path class="st2" d="M188.3,70.2c-2-3.5-8.2-9.6-12.6-12.6c-5.4-3.6-12.2-6.3-19.4-7.7l-1.5-0.3v15.6v15.5l1.7,1.2
	c2.8,2.1,3.6,3.3,3.6,5.4c0,2.5-1.2,4.4-3.5,6l-1.8,1.2v15.5c0,15.3,0,15.5,0.9,15.8c1.8,0.6,8.2-1,13.7-3.5
	c7-3.1,15.3-10.1,18.7-15.9C194.7,95.6,194.7,81.2,188.3,70.2z"/>
<path class="st3" d="M40,8.8H9.8c-1,0-1.8,0.8-1.8,1.8v83v31.6c0,1,0.8,1.8,1.8,1.8H40c1,0,1.8-0.9,1.8-1.8V93.6v-83
	C41.8,9.6,41,8.8,40,8.8z"/>
<path class="st2" d="M152,96.4l-0.1-0.9h-21.7H71.1L45,127.1h1.7c0.2,0,0.3,0,0.5,0c2.8,0.3,41.9,0.2,71.5,0h11.5V127
	c12.5-0.1,21.4-0.3,21.7-0.4c0.7-0.3,0.7-1.5,0.7-15C152.6,101.5,152.6,97.7,152,96.4z"/>
<polygon class="st3" points="69.2,95.5 66,95.5 43.8,95.5 43.8,126.5 65.1,100.5 "/>
</svg>
