<?xml version="1.0" encoding="utf-8"?>
<!-- Generator: Adobe Illustrator 27.6.1, SVG Export Plug-In . SVG Version: 6.00 Build 0)  -->
<svg version="1.1" id="Layer_1" xmlns="http://www.w3.org/2000/svg" xmlns:xlink="http://www.w3.org/1999/xlink" x="0px" y="0px"
	 viewBox="0 0 1460.3 327.1" style="enable-background:new 0 0 1460.3 327.1;" xml:space="preserve">
<style type="text/css">
	.st0{fill:#BF3232;}
	.st1{fill:#CE0606;}
	.st2{fill:#F15925;}
	.st3{fill:#0072BD;}
	.st4{fill:#898989;}
	.st5{font-family:'Impact';}
	.st6{font-size:132.1556px;}
	.st7{fill:#D3C9C9;}
</style>
<path class="st0" d="M234.9,88.9c0.9,0,1.3-0.5,1-1c-0.3-0.6-0.8-1-1-1s-0.7,0.4-1,1C233.5,88.3,234,88.9,234.9,88.9z"/>
<path class="st0" d="M237.4,83.7c1.1,0,2.1-0.6,2.1-1.4s1-1.7,2.4-2c1.8-0.4,2-0.4,0.2-0.5c-2.5-0.1-6.7,1.8-6.7,3.1
	C235.4,83.3,236.3,83.7,237.4,83.7z"/>
<path class="st0" d="M241.1,86.1c0.9,0.9,4.5-1.6,4.5-3.1c0-0.7-0.4-1.3-0.8-1.3C243.5,81.7,240.4,85.4,241.1,86.1z"/>
<path class="st0" d="M253.2,76.5c1.8,1.3,2.8,1.8,2.1,1c-0.6-0.8-1.3-2.5-1.5-3.6c-0.2-1.3-0.9-2-2.1-1.7
	C249,72.7,249.4,73.6,253.2,76.5z"/>
<path class="st0" d="M247.4,87c0.3-0.7,0.2-1.6-0.1-2s-0.6,0.2-0.5,1.3C246.8,87.5,247.1,87.8,247.4,87z"/>
<path class="st0" d="M150.7,176.7c-0.8-0.3-1.5-0.4-1.5-0.2s0.7,0.9,1.5,1.6c0.9,0.7,1.5,0.8,1.5,0.2
	C152.2,177.9,151.5,177.2,150.7,176.7z"/>
<path class="st0" d="M157.5,170.7c-1,0.2-2.6-0.3-3.5-1.1c-0.8-0.9-2-1.6-2.5-1.6c-0.4,0,0.8,1.4,2.8,3c2.5,2.2,3.8,2.7,4.3,1.8
	C159.8,170.8,159.5,170.2,157.5,170.7z"/>
<path class="st0" d="M152.7,173.1c-0.8-0.7-1.5-0.8-1.5-0.2c0,0.5,0.7,1.5,1.5,2.3c0.8,0.7,1.5,0.8,1.5,0.2
	C154.3,174.8,153.6,173.8,152.7,173.1z"/>
<path class="st0" d="M279.6,50.9c0.5,0,0.7-0.5,0.4-1c-0.3-0.6-0.8-1-1.1-1c-0.2,0-0.4,0.4-0.4,1C278.5,50.3,279,50.9,279.6,50.9z"
	/>
<path class="st0" d="M286.7,44.3c0-0.8-0.4-1.7-0.9-2.1c-1-0.7-2.4,2-1.4,2.9C285.5,46.2,286.7,45.7,286.7,44.3z"/>
<path class="st0" d="M354.9,160.7c0.8,0,1.7,0.8,2,1.7c0.3,1,0.5-1.5,0.6-5.6c0-4-0.1-7.4-0.4-7.4s-0.5,2.2-0.5,4.7
	c0,3.8-0.3,4.6-1.5,4.1c-0.9-0.3-1.5,0-1.5,0.9C353.5,160,354.1,160.7,354.9,160.7z"/>
<path class="st0" d="M280.8,45.3c0.5-0.9,0.7-2.3,0.4-3c-0.2-0.7-0.5-0.4-0.5,0.5c-0.1,1-0.6,1.8-1.2,1.8c-0.5,0-0.7,0.5-0.3,1.1
	C279.6,46.7,280.2,46.4,280.8,45.3z"/>
<path class="st0" d="M241.6,89.2c-4.6,0-5.4,1.3-1.5,2.4c2.8,0.7,5.6,0,5.6-1.4C245.7,89.6,243.8,89.2,241.6,89.2z"/>
<path class="st0" d="M258.5,71.4c-1-1.1-2.3-2.1-2.9-2.1c-0.5,0,0.1,1.1,1.4,2.5C259.9,74.8,261.2,74.4,258.5,71.4z"/>
<path class="st0" d="M280.3,59.7c0.4-0.4,0.1-1.2-0.7-1.7c-1.1-0.8-1.2-1.2-0.2-1.6c0.6-0.2,1.2-1.4,1.2-2.7c0-2.1-0.1-2.1-1.3-0.3
	c-1.8,2.6-6.3,1.3-5.5-1.5c0.6-2.3,0.3-2.5-1.2-0.6c-0.8,1-0.1,2.3,3,5.3C277.7,58.7,279.9,60.1,280.3,59.7z"/>
<path class="st0" d="M261.2,68.3c0.5,0,0.7-0.5,0.4-1c-0.3-0.6-0.8-1-1.1-1c-0.2,0-0.4,0.4-0.4,1C260,67.8,260.5,68.3,261.2,68.3z"
	/>
<path class="st0" d="M272.3,62.1c1.4-0.9,1.3-1-0.2-0.5c-2,0.6-4.8-1.4-4.8-3.4c0-0.6,0.7-1.1,1.5-1.1s1.5,0.5,1.5,1.2
	c0,0.9,0.3,0.9,1.2,0c1-1,0.9-1.5-0.3-2.8c-1.4-1.4-1.7-1.3-3.6,0.7c-1.1,1.3-2,3.1-1.7,4C266.4,62.4,270.1,63.4,272.3,62.1z"/>
<path class="st1" d="M444.5,249.2c0.9-1.3,1.4-2.6,1.2-2.8c-0.4-0.5-2.9,3.2-2.9,4.3C442.8,251.2,443.5,250.5,444.5,249.2z"/>
<path class="st1" d="M424.3,269.6c0,0.5,0.8,1,1.7,1c2.3,0,0.8,1.3-2,1.7c-2.8,0.4-3.8,1.4-2.1,2.1c0.6,0.3,0.9,1,0.5,1.6
	c-0.7,1.3,3.8-2.3,5-3.8c0.3-0.5,0.4-1.5,0.1-2.4C427.1,268.3,424.3,268,424.3,269.6z"/>
<path class="st1" d="M368.7,147.1c-0.9-0.6-1.8-2.2-2.2-3.3c-0.4-1.8-0.5-1.7-0.6,0.3c-0.1,2.5,2.6,6.1,3.7,4.9
	C370,148.7,369.5,147.8,368.7,147.1z"/>
<path class="st1" d="M378.3,133c-1.4-1.3-1.5-1.2-1,0.2c0.9,2.3-0.2,3.1-2.1,1.5c-1.1-0.9-1.1-0.4,0.2,1.5c1.7,2.7,4.7,4.3,3.2,1.8
	c-0.4-0.6-0.2-1.6,0.3-2.4C379.7,135,379.5,134,378.3,133z"/>
<path class="st1" d="M424.3,266.1c0-1-0.9-1.6-2.2-1.6c-2.5,0-2.2,2.4,0.4,2.9C423.6,267.5,424.3,267,424.3,266.1z"/>
<path class="st1" d="M437.3,254.2c-0.1,0-1,0.7-2.1,1.5c-2.1,1.5-2.1,1.5,0.1,3.5l2.2,2.1l-0.1-3.6
	C437.3,255.8,437.3,254.2,437.3,254.2z"/>
<circle class="st1" cx="440.8" cy="255.2" r="1"/>
<path class="st0" d="M343.7,167.9c1.4,1.3,2.6,2,2.6,1.4c-0.1-1.7-3.8-5.9-4.4-4.8C341.5,165.1,342.4,166.7,343.7,167.9z"/>
<path class="st0" d="M334.6,172c0.8,0,1.2-0.5,0.9-1c-0.3-0.6-1-1-1.6-1c-0.5,0-0.9,0.4-0.9,1C332.9,171.5,333.7,172,334.6,172z"/>
<path class="st0" d="M337,175.6c0.6-0.3,1-1,1-1.6c0-0.5-0.4-0.9-1-0.9c-0.5,0-1,0.7-1,1.6C336,175.5,336.5,175.9,337,175.6z"/>
<path class="st0" d="M336.6,179.8c-0.9,2.5-0.7,2.9,0.9,1.4c0.8-0.7,1.5-1.6,1.5-2.2C339.1,177.6,337.3,178.1,336.6,179.8z"/>
<path class="st0" d="M330,176.1c1.4,0,2-0.5,1.7-1.7c-0.5-2.7-3.9-3-3.9-0.4C327.8,175.5,328.4,176.1,330,176.1z"/>
<path class="st0" d="M333.1,182.3c0.4,0,0.8-0.6,0.8-1.4c0-0.8,0.3-2.2,0.6-3.1c0.3-0.9,0.2-1.6-0.4-1.6c-0.5,0-1.2,1.3-1.4,3.1
	C332.4,180.9,332.6,182.3,333.1,182.3z"/>
<path class="st2" d="M280.8,122.1c-41.6,0-77.1-0.4-78.9-0.8c-2.5-0.5-3.7-1.7-5-4.7c-2.5-5.3-1.2-9.9,3.5-13l3.5-2.4h75.9
	c50.4,0,76.6-0.3,77.9-1c1.8-1,2-2.6,2-34.8c0-31.3-0.1-33.8-1.8-35.3c-1.7-1.6-8.7-1.7-80.4-1.6c-58.4,0.1-80.9,0.4-88.3,1.4
	c-13.6,1.8-22.5,4.2-33,8.7s-26.8,15.1-25.9,16.6c0.4,0.6,0.2,0.8-0.4,0.4c-1.6-1-13.1,12.3-17,19.9c-9.9,18.9-11.3,39.7-4.1,61.3
	c2.2,6.5,5.8,12.7,11.7,20.3c7.5,9.4,23.2,21.8,26.3,20.6c0.8-0.3,1.2-0.2,0.9,0.4c-0.7,1.2,3.3,3.4,4.8,2.5
	c0.6-0.4,0.8-0.3,0.5,0.3c-0.8,1.3,2.1,2.7,3.6,1.6c0.6-0.3,0.8-0.1,0.5,0.4c-1,1.5,11.5,6,24.6,8.6c10.8,2.3,13.1,2.4,93.2,3
	c46.1,0.3,82.7,0.1,83.5-0.4c0.9-0.6,1.2-8.7,1.2-34.4c-0.1-28.2-0.3-33.8-1.6-35.5C356.5,122.2,355.2,122.2,280.8,122.1z"/>
<path class="st3" d="M650.2,273.7c-12.7-9.2-25.4-18.5-28.2-20.5c-18.1-13.2-25.8-18.9-34.9-25.5c-11.7-8.4-32.6-23.5-43.1-31.2
	c-16.4-12.1-19-13.9-26.5-19.3c-8-5.8-9.2-7.2-8.3-9.5c0.2-0.6,4.9-4.5,10.5-8.5c5.4-4.1,14.4-10.8,19.7-14.9
	c10.4-8,43-32.8,54.9-41.6c4-3,8.3-6.3,9.8-7.4c8.2-6.3,52-39.3,64.1-48.3c16.5-12.4,20-15.5,20-17.4c0-1.1-11-1.3-59-1.3H570
	l-58.5,44.4c-62.3,47.4-63.5,48.3-64.8,47.4c-0.4-0.3-0.8-20.1-0.8-44.2c0-28.1-0.4-44.4-1-45.7c-1-1.8-2.6-2-39.9-2
	c-21.4,0-39.1,0.3-39.4,0.7c-0.4,0.3-0.7,20.1-0.7,43.9c0,34.2,0.3,43.6,1.3,44.5c0.7,0.6,4.8,1.8,9,2.8c34.7,7.1,63,27.8,76,55.2
	c4.5,9.8,7.2,21.5,7.8,34.7l0.6,12l19.1,14.3c10.5,7.9,25.4,19,33,24.6c7.6,5.6,23.9,17.7,36.3,26.8l22.4,16.6h59.5
	c32.7,0,59.6-0.4,59.9-0.8C690.2,302.7,686.5,299.9,650.2,273.7z"/>
<path class="st2" d="M443,171.6c-4.7-8.1-19.1-22.5-29.5-29.4c-12.6-8.5-28.6-14.8-45.4-17.9l-3.4-0.6v36.5v36.3l3.9,2.8
	c6.6,4.8,8.4,7.6,8.4,12.7c0,5.8-2.7,10.3-8.2,14l-4.1,2.8V265c0,35.8,0,36.2,2.2,36.9c4.3,1.4,19.2-2.4,32-8.1
	c16.3-7.2,35.7-23.7,43.6-37.1C457.9,231,458,197.3,443,171.6z"/>
<g>
	<g>
		<text transform="matrix(1.0904 0 0 1 745.4065 230.7)" class="st4 st5 st6">Enterprises</text>
	</g>
</g>
<rect x="717.3" y="25.5" class="st7" width="4.7" height="275.6"/>
<path class="st3" d="M96.7,28.4H26c-2.3,0-4.1,1.8-4.1,4.1v193.9v73.8c0,2.4,1.8,4.3,4.1,4.3h70.7c2.3,0,4.1-2,4.1-4.3v-73.8V32.5
	C100.8,30.2,99,28.4,96.7,28.4z"/>
<path class="st2" d="M358.2,232.8l-0.3-2.1h-50.6H169.2l-60.9,73.8h4c0.4,0,0.8,0.1,1.2,0.1c6.5,0.7,97.8,0.5,166.9-0.1h26.9v-0.2
	c29.2-0.3,49.9-0.7,50.6-1c1.6-0.8,1.7-3.5,1.7-35C359.6,244.9,359.5,235.9,358.2,232.8z"/>
<polygon class="st3" points="164.9,230.7 157.4,230.7 105.4,230.7 105.4,303.1 155.3,242.5 "/>
</svg>
