<svg width="15" height="16" viewBox="0 0 15 16" fill="none" xmlns="http://www.w3.org/2000/svg">
<path d="M7.0829 12.8929L6.20521 10.6986C5.9579 10.0803 5.34174 9.72031 4.69874 9.7846L4.01218 9.85325C3.81687 8.981 3.81087 8.04475 4.01212 7.14644L4.69868 7.2151C5.34058 7.27932 5.95749 6.92032 6.20518 6.30116L7.0829 4.10685C7.34658 3.44766 7.10099 2.69613 6.49896 2.31985L4.74349 1.22276C4.17796 0.869293 3.42477 0.934949 2.93049 1.4292C-0.963948 5.32363 -0.986604 11.6534 2.93049 15.5705C3.42474 16.0647 4.17777 16.1306 4.74352 15.777L6.49896 14.6799C7.10099 14.3036 7.34658 13.552 7.0829 12.8929V12.8929ZM3.97177 14.4905C0.678084 11.1761 0.673584 5.82816 3.9718 2.50917L5.67949 3.57654L4.82208 5.71994L2.94877 5.53266C2.16065 7.71375 2.15999 9.28422 2.94877 11.4671L4.82212 11.2797L5.67949 13.4232L3.97177 14.4905V14.4905ZM8.83827 3.16279L8.47965 3.52141C8.35099 3.65007 8.33368 3.85216 8.43774 4.00141C8.64217 4.29421 8.75159 4.64279 8.75118 4.99988C8.7516 5.35697 8.64216 5.70555 8.43771 5.99832C8.33368 6.14757 8.35099 6.34969 8.47962 6.47832L8.83824 6.83694C9.00046 6.99916 9.26796 6.97819 9.4054 6.79447C9.77971 6.29407 10.0012 5.67285 10.0012 4.99988C10.0012 4.32691 9.77971 3.7057 9.40543 3.20526C9.26799 3.02151 9.00049 3.00057 8.83827 3.16279V3.16279ZM11.6781 0.32295L11.3243 0.676793C11.1849 0.816199 11.176 1.04089 11.3068 1.18835C12.2407 2.24076 12.7512 3.58098 12.7512 4.99988C12.7512 6.41879 12.2407 7.759 11.3068 8.81141C11.1759 8.95888 11.1849 9.18356 11.3243 9.32297L11.6781 9.67681C11.8303 9.82903 12.0795 9.82238 12.2229 9.66185C13.3289 8.4241 14.0012 6.79057 14.0012 4.99988C14.0012 3.2092 13.3289 1.57567 12.2229 0.337918C12.0795 0.177387 11.8303 0.170731 11.6781 0.32295V0.32295ZM10.2608 1.74029L9.90593 2.09513C9.76824 2.23282 9.75971 2.45229 9.88452 2.60179C10.4458 3.27398 10.7512 4.11357 10.7512 4.99988C10.7512 5.88619 10.4458 6.72579 9.88452 7.398C9.75971 7.54747 9.76824 7.76697 9.90593 7.90466L10.2608 8.2595C10.415 8.41372 10.6689 8.40528 10.8102 8.23919C11.5529 7.36647 12.0012 6.23551 12.0012 4.99988C12.0012 3.76426 11.5529 2.63329 10.8102 1.7606C10.6689 1.59451 10.415 1.5861 10.2608 1.74029V1.74029Z" fill="#F8F8F8"/>
</svg>
